<svg xmlns="http://www.w3.org/2000/svg" viewBox="0 0 64 64" id="payment-success"><path fill="#bedcff" d="M62 10v6H2v-6a4 4 0 0 1 4-4h52a4 4 0 0 1 4 4Z"></path><path fill="#00459a" d="M2 16h60v9H2z"></path><path fill="#bedcff" d="M62 25v19.5A13.5 13.5 0 1 0 36.17 50H6a4 4 0 0 1-4-4V25Z"></path><path fill="#7fd73c" d="M62 44.5A13.5 13.5 0 1 1 48.5 31 13.49 13.49 0 0 1 62 44.5Z"></path><path d="M58 4H6a6 6 0 0 0-6 6v36a6 6 0 0 0 6 6h29a15.49 15.49 0 0 0 29-7.5V10a6 6 0 0 0-6-6Zm-9.5 52A11.5 11.5 0 1 1 60 44.5 11.51 11.51 0 0 1 48.5 56ZM60 34.14A15.47 15.47 0 0 0 33.41 48H6a2 2 0 0 1-2-2V27h56ZM60 23H4v-5h56Zm0-9H4v-4a2 2 0 0 1 2-2h52a2 2 0 0 1 2 2Z"></path><path d="M7 30h4v4H7zM13 30h19v4H13zM7 36h4v4H7zM13 36h19v4H13zM46.28 47.17l-6.08-6.08-2.83 2.82 7.5 7.5a2 2 0 0 0 1.41.59 2 2 0 0 0 1.42-.59l11-11-2.83-2.82Z"></path></svg>